<?xml version="1.0" encoding="UTF-8"?>
<!DOCTYPE svg PUBLIC "-//W3C//DTD SVG 1.1//EN" "http://www.w3.org/Graphics/SVG/1.1/DTD/svg11.dtd">
<!-- Creator: CorelDRAW -->
<svg xmlns="http://www.w3.org/2000/svg" xml:space="preserve" width="204.821mm" height="194.792mm" version="1.1" style="shape-rendering:geometricPrecision; text-rendering:geometricPrecision; image-rendering:optimizeQuality; fill-rule:evenodd; clip-rule:evenodd"
viewBox="0 0 20467.87 19465.66"
 xmlns:xlink="http://www.w3.org/1999/xlink"
 xmlns:xodm="http://www.corel.com/coreldraw/odm/2003">
 <defs>
  <style type="text/css">
   <![CDATA[
    .fil2 {fill:#373435}
    .fil0 {fill:#373435}
    .fil1 {fill:#FFC105}
   ]]>
  </style>
 </defs>
 <g id="Layer_x0020_1">
  <metadata id="CorelCorpID_0Corel-Layer"/>
  <g id="_2385234600000">
   <path class="fil0" d="M9957.97 0l-2099.92 6395.49 -12.27 55c152.4,236.26 722.21,923.46 906.41,1194.1l667.48 -489.08 -567.18 -728.8 -4.7 -7.06 6.53 -46.63 1096.21 -3313.36 13.72 -80.2 0.26 3.26 1453.55 4492.45 252.67 787.96 792.71 -547.51 -2502.33 -7715.62 -2.09 9.92 -1.05 -9.92z"/>
   <polygon class="fil1" points="12263.23,8405.37 14255.52,7015.34 20467.87,7015.47 16817.08,9744.26 15102.15,9744.26 17624.79,8023.31 14257.22,8039.51 13046.97,8950.54 "/>
   <path class="fil0" d="M5332.8 9743.99l-44.42 -28.87 -82.55 -61.79 -2173.6 -1626.77 5453.01 21.04c-250,-384.76 -472.66,-656.53 -764.21,-1025.47l-7721.04 0 3363.13 2620.61 129.85 101.24 1839.83 0z"/>
   <polygon class="fil0" points="6810.9,9515.52 8731.12,8190.87 8732.41,8192.74 9879.46,7399.78 9878.95,7399.06 9957.97,7344.54 11856.41,8657.95 12951.59,9419.76 12953.53,9416.97 13187.73,9579.01 13187.46,9770.64 13187.46,9807.09 6811.17,9743.6 6811.04,9629.04 "/>
   <polygon class="fil1" points="8393.78,13113.26 7839.77,11992.7 12029.54,11992.7 11513.02,13095.63 "/>
   <polygon class="fil1" points="3683.7,19204.13 6019.02,11992.7 7195.89,11992.7 5570.69,16607.29 8788.29,14664.26 8788.29,13595.17 9629.04,13590.33 9629.04,15187.32 "/>
   <polygon class="fil2" points="14590.45,17107.61 10278.94,13608.36 10278.94,14878.37 16238.26,19465.66 14183.41,12709.62 13936.12,11992.96 12681.26,11992.96 12146.72,13107.26 13097.07,13109.22 "/>
   <path class="fil2" d="M1090.54 11574.28l-247.2 -247.2 0 -1023.48 247.2 -247.2 691.72 0 0 212.5 -570.28 0 -123.6 123.59 0 845.68 123.6 121.43 572.45 0 0 214.67 -693.89 0zm1047.34 0l-203.83 -203.83 0 -693.89 203.83 -203.83 474.87 0 203.83 203.83 0 693.89 -203.83 203.83 -474.87 0zm110.58 -203.83l253.7 0 84.56 -84.57 0 -526.91 -84.56 -82.4 -253.7 0 -84.57 82.4 0 526.91 84.57 84.57zm800.13 203.83l0 -1101.54 175.65 0 0 71.56 32.52 0 86.74 -71.56 362.12 0 190.83 188.65 0 912.89 -232.02 0 0 -828.32 -69.39 -69.39 -221.18 0 -95.41 78.07 0 819.65 -229.85 0zm1062.52 0l0 -201.66 492.22 0 45.54 -45.54 0 -160.46 -49.88 -49.88 -331.76 0 -169.13 -169.13 0 -310.08 166.96 -164.8 574.62 0 0 199.49 -464.04 0 -45.53 47.71 0 145.28 49.87 49.88 331.77 0 169.13 169.13 0 323.09 -166.96 166.96 -602.81 0zm1194.78 0l-145.28 -147.45 0 -754.6 -173.47 0 0 -199.49 173.47 0 0 -268.88 229.85 0 0 268.88 299.24 0 0 199.49 -299.24 0 0 670.03 28.19 28.19 281.89 0 0 203.83 -394.66 0zm552.93 0l0 -1101.54 175.65 0 0 71.56 32.52 0 86.74 -71.56 312.25 0 0 206 -281.89 0 -95.41 78.07 0 817.48 -229.85 0zm899.89 0l-188.66 -188.65 0 -912.89 229.85 0 0 828.32 69.39 69.39 199.49 0 95.41 -78.07 0 -819.65 232.02 0 0 1101.54 -177.82 0 0 -73.73 -32.52 0 -86.74 73.73 -340.43 0zm1071.18 0l-203.83 -203.83 0 -693.89 203.83 -203.83 544.26 0 0 203.83 -433.68 0 -84.57 82.4 0 526.91 84.57 84.57 433.68 0 0 203.83 -544.26 0zm962.76 0l-145.28 -147.45 0 -754.6 -173.47 0 0 -199.49 173.47 0 0 -268.88 229.85 0 0 268.88 299.24 0 0 199.49 -299.24 0 0 670.03 28.19 28.19 281.89 0 0 203.83 -394.66 0zm552.93 0l0 -1101.54 229.85 0 0 1101.54 -229.85 0zm-2.17 -1301.03l0 -216.84 236.36 0 0 216.84 -236.36 0zm667.87 1301.03l-203.83 -203.83 0 -693.89 203.83 -203.83 474.87 0 203.83 203.83 0 693.89 -203.83 203.83 -474.87 0zm110.58 -203.83l253.7 0 84.56 -84.57 0 -526.91 -84.56 -82.4 -253.7 0 -84.57 82.4 0 526.91 84.57 84.57zm800.13 203.83l0 -1101.54 175.65 0 0 71.56 32.52 0 86.74 -71.56 362.12 0 190.83 188.65 0 912.89 -232.02 0 0 -828.32 -69.39 -69.39 -221.18 0 -95.41 78.07 0 819.65 -229.85 0zm1700.02 0l0 -1517.87 245.03 0 0 644.01 232.02 0 329.6 -644.01 229.84 0 0 86.74 -346.94 657.02 379.47 687.37 0 86.74 -236.36 0 -353.44 -661.36 -234.19 0 0 661.36 -245.03 0zm1246.82 0l0 -1101.54 229.85 0 0 1101.54 -229.85 0zm-2.17 -1301.03l0 -216.84 236.36 0 0 216.84 -236.36 0zm479.22 1301.03l0 -1101.54 175.65 0 0 71.56 32.52 0 86.74 -71.56 362.12 0 190.83 188.65 0 912.89 -232.02 0 0 -828.32 -69.39 -69.39 -221.18 0 -95.41 78.07 0 819.65 -229.85 0zm1270.68 0l-203.83 -203.83 0 -693.89 203.83 -203.83 461.86 0 201.67 203.83 0 457.53 -637.52 0 0 156.12 84.57 82.4 494.4 0 0 201.66 -604.98 0zm26.01 -628.83l407.67 0 0 -192.99 -80.23 -80.23 -247.2 0 -80.23 82.4 0 190.82zm1071.18 628.83l-145.28 -147.45 0 -754.6 -173.47 0 0 -199.49 173.47 0 0 -268.88 229.85 0 0 268.88 299.24 0 0 199.49 -299.24 0 0 670.03 28.19 28.19 281.89 0 0 203.83 -394.66 0zm552.93 0l0 -1101.54 229.85 0 0 1101.54 -229.85 0zm-2.17 -1301.03l0 -216.84 236.36 0 0 216.84 -236.36 0zm667.87 1301.03l-203.83 -203.83 0 -693.89 203.83 -203.83 544.26 0 0 203.83 -433.68 0 -84.57 82.4 0 526.91 84.57 84.57 433.68 0 0 203.83 -544.26 0zm719.91 0l0 -201.66 492.22 0 45.54 -45.54 0 -160.46 -49.88 -49.88 -331.76 0 -169.13 -169.13 0 -310.08 166.96 -164.8 574.62 0 0 199.49 -464.04 0 -45.53 47.71 0 145.28 49.87 49.88 331.77 0 169.13 169.13 0 323.09 -166.96 166.96 -602.81 0z"/>
  </g>
 </g>
</svg>
